<?xml version="1.0" standalone="no"?>
<!DOCTYPE svg PUBLIC "-//W3C//DTD SVG 1.1//EN" "http://www.w3.org/Graphics/SVG/1.1/DTD/svg11.dtd" >
<svg xmlns="http://www.w3.org/2000/svg">
<metadata>
Created by FontForge 20120731 at Sun Sep  6 15:58:28 2015
 By Ads
</metadata>
<defs>
<font id="iconfont" horiz-adv-x="1024" >
  <font-face 
    font-family="iconfont"
    font-weight="500"
    font-stretch="normal"
    units-per-em="1024"
    panose-1="2 0 6 3 0 0 0 0 0 0"
    ascent="812"
    descent="-212"
    x-height="792"
    bbox="34 -148 960 792"
    underline-thickness="50"
    underline-position="-100"
    unicode-range="U+0078-E62B"
  />
<missing-glyph horiz-adv-x="374" 
d="M34 0v682h272v-682h-272zM68 34h204v614h-204v-614z" />
    <glyph glyph-name=".notdef" horiz-adv-x="374" 
d="M34 0v682h272v-682h-272zM68 34h204v614h-204v-614z" />
    <glyph glyph-name=".null" horiz-adv-x="0" 
 />
    <glyph glyph-name="nonmarkingreturn" horiz-adv-x="341" 
 />
    <glyph glyph-name="x" unicode="x" horiz-adv-x="1001" 
d="M281 543q-27 -1 -53 -1h-83q-18 0 -36.5 -6t-32.5 -18.5t-23 -32t-9 -45.5v-76h912v41q0 16 -0.5 30t-0.5 18q0 13 -5 29t-17 29.5t-31.5 22.5t-49.5 9h-133v-97h-438v97zM955 310v-52q0 -23 0.5 -52t0.5 -58t-10.5 -47.5t-26 -30t-33 -16t-31.5 -4.5q-14 -1 -29.5 -0.5
t-29.5 0.5h-32l-45 128h-439l-44 -128h-29h-34q-20 0 -45 1q-25 0 -41 9.5t-25.5 23t-13.5 29.5t-4 30v167h911zM163 247q-12 0 -21 -8.5t-9 -21.5t9 -21.5t21 -8.5q13 0 22 8.5t9 21.5t-9 21.5t-22 8.5zM316 123q-8 -26 -14 -48q-5 -19 -10.5 -37t-7.5 -25t-3 -15t1 -14.5
t9.5 -10.5t21.5 -4h37h67h81h80h64h36q23 0 34 12t2 38q-5 13 -9.5 30.5t-9.5 34.5q-5 19 -11 39h-368zM336 498v228q0 11 2.5 23t10 21.5t20.5 15.5t34 6h188q31 0 51.5 -14.5t20.5 -52.5v-227h-327z" />
    <glyph glyph-name="uniE600" unicode="&#xe600;" 
d="M544 574v118l-336 -224l336 -224v109q45 -35 71 -86.5t26 -110.5q0 -91 -59.5 -160.5t-148.5 -83.5q3 -1 6.5 -1.5t7 -0.5t6.5 -0.5t7 -0.5h6q4 0 7.5 -0.5t6.5 -0.5q91 0 168.5 45t122.5 122.5t45 168.5q0 80 -35.5 150.5t-97.5 117.5t-139 62z" />
    <glyph glyph-name="uniE601" unicode="&#xe601;" 
d="M512 580q-116 0 -198 -82t-82 -198t82 -198t198 -82t198 82t82 198t-82 198t-198 82zM621 260l-69 -69q-11 -10 -25.5 -14t-29 0t-25.5 14l-69 69q-16 17 -16 40t16 40l69 69q11 10 25.5 14t29 0t25.5 -14l69 -69q16 -17 16 -40t-16 -40z" />
    <glyph glyph-name="uniE602" unicode="&#xe602;" 
d="M245 21l89 55l81 -75l68 38l66 -38l55 75l66 -75l63 38l44 -22q14 -6 24 0t10 22v522q0 7 -2 12.5t-5.5 10t-8 8t-10 5.5t-12.5 2h-522q-16 0 -27 -11t-11 -27v-522q0 -11 4.5 -17t11.5 -6t16 5zM325 487h374q15 0 26 -11t11 -26.5t-11 -26.5t-26 -11h-374q-10 0 -18.5 5
t-13.5 13.5t-5 18.5q0 8 3 15t8 12t12 8t14 3zM325 375h262q7 0 14 -3t12 -8t8 -12t3 -15q0 -10 -5 -18.5t-13.5 -13.5t-18.5 -5h-262q-10 0 -18.5 5t-13.5 13.5t-5 18.5q0 16 11 27t26 11zM325 263h374q15 0 26 -11t11 -26.5t-11 -26.5t-26 -11h-374q-15 0 -26 11t-11 26
q0 8 3 15t8 12t12 8t14 3z" />
    <glyph glyph-name="uniE603" unicode="&#xe603;" 
d="M888 354l-126 109v134q0 11 -8.5 19.5t-19.5 8.5h-56q-12 0 -20 -8t-8 -20v-36l-119 103q-9 8 -21 8t-21 -8l-357 -310q-11 -10 -13.5 -18.5t4.5 -13.5t23 -5h84v-336q0 -12 4.5 -22.5t12 -18t17.5 -11.5t22 -4h112v196q0 35 24.5 59.5t59.5 24.5h56q35 0 59.5 -25
t24.5 -59v-196h112q15 0 28 7.5t20.5 20t7.5 28.5v336h84q23 0 27 10.5t-13 26.5z" />
    <glyph glyph-name="uniE604" unicode="&#xe604;" 
d="M736 636h-56v-28q0 -9 -3 -17.5t-8 -15.5t-12 -12.5t-15.5 -8t-17.5 -2.5h-224q-11 0 -21.5 4.5t-18 12t-12 17.5t-4.5 22v28h-56q-15 0 -28 -7.5t-20.5 -20.5t-7.5 -28v-588q0 -23 16.5 -39.5t39.5 -16.5h448q15 0 28 7.5t20.5 20.5t7.5 28v588q0 9 -3 17.5t-8 15.5
t-12 12t-15.5 8t-17.5 3zM680 132h-336q-7 0 -13.5 4t-10.5 10t-4 14t4 14.5t10.5 10t13.5 3.5h336q11 0 19.5 -8t8.5 -20q0 -8 -4 -14t-10.5 -10t-13.5 -4zM680 244h-336q-7 0 -13.5 3.5t-10.5 10t-4 14.5q0 12 8.5 20t19.5 8h336q11 0 19.5 -8t8.5 -20q0 -6 -2.5 -11
t-6 -9t-9 -6t-10.5 -2zM680 356h-336q-7 0 -13.5 3.5t-10.5 10t-4 14.5q0 12 8.5 20t19.5 8h336q7 0 13.5 -4t10.5 -10t4 -14q0 -5 -1.5 -9t-4 -7.5t-6 -6t-8 -4t-8.5 -1.5zM392 576l4 -2l6 -3l4 -1h2h2h4h196q17 0 29.5 12t12.5 30q0 9 -4 18l-2 3v1l-1 1q-3 4 -7 8v1h-1
q-3 2 -5.5 3.5t-5.5 2.5l-6 2q-2 1 -4 1h-6h-196q-3 0 -6.5 -0.5t-6.5 -1.5t-6 -2.5t-5.5 -3.5t-5.5 -4v-1h-1q-1 -1 -2 -2.5t-2 -2.5q-1 -3 -2.5 -5.5t-2.5 -5.5t-1.5 -6t-0.5 -6q0 -24 20 -36z" />
    <glyph glyph-name="uniE605" unicode="&#xe605;" 
d="M396 346q-67 0 -123 -57.5t-68 -138.5l-21 -140q-3 -24 11 -40.5t37 -16.5h560q24 0 38 16.5t10 40.5l-20 140q-12 81 -68 138.5t-124 57.5h-32v22q39 22 61.5 61t22.5 85q0 13 -2 26q2 10 2 16q0 7 -4 17.5t-11 21.5t-17.5 22.5t-23.5 21.5q-47 43 -111.5 43t-112.5 -43
q-25 -20 -40.5 -43.5t-15.5 -39.5q0 -3 0.5 -7t1.5 -9q-2 -13 -2 -26q0 -46 23 -85t61 -61v-22h-32zM535 264q1 4 7.5 14.5t12.5 19.5l6 8q17 24 49 24q-5 3 -11 4l23 -6q-6 2 -12 2q10 -7 13.5 -18.5t-1.5 -23.5q0 -1 -0.5 -2t-2 -4.5t-3 -6.5t-3 -7.5t-3 -8t-3 -7.5
t-2 -6.5t-1.5 -6.5t-1.5 -8.5t-0.5 -8.5l-2 -8q0 -4 -0.5 -7t-0.5 -5v-1q-2 -13 -11 -21.5t-21 -9.5q2 -1 3.5 -1.5t3.5 -1.5t4 -1l-22 6q3 -1 5.5 -1.5t5.5 -0.5q-8 5 -14.5 12t-11 16t-4.5 17l-1 5q0 4 -0.5 10t-1 13t-0.5 13t1 8zM434 334l-10 -4q14 0 27.5 -6.5
t21.5 -17.5q23 -33 26 -42q0 -1 0.5 -5t0 -8.5t-0.5 -9.5t-0.5 -9.5t-1 -8t-0.5 -5.5v-3q-3 -29 -30 -45q5 0 11 2l-23 -6q6 1 12 4q-13 1 -22 9.5t-10 21.5q0 1 -0.5 3.5t-1 8.5t-1.5 11t-2 11.5t-2 9.5t-2 7t-2.5 7.5t-3.5 8t-3.5 8t-2.5 6t-2 4.5l-1 2q-5 12 -1.5 23.5
t14.5 18.5q-6 0 -12 -2z" />
    <glyph glyph-name="uniE606" unicode="&#xe606;" 
d="M656 -14q-21 22 -15 52q-25 16 -25 47t25 47q-1 5 -1 10.5t1 11t3 11t5 10t7 9.5q22 21 52 15q17 26 47 26q6 0 12 -1.5t11 -4t10 -5.5q-26 55 -72 88.5t-96 33.5h-32v23q38 22 60.5 60.5t22.5 84.5q0 13 -2 26q2 10 2 16t-2.5 14t-7 16.5t-11.5 17.5t-15.5 18t-18.5 17
q-48 43 -112 43q-32 0 -60.5 -11.5t-51.5 -31.5q-25 -20 -40.5 -43.5t-15.5 -39.5q0 -6 2 -16q-1 -6 -1.5 -12.5t-0.5 -13.5q0 -30 10.5 -58.5t29.5 -50.5t44 -36v-23h-32q-67 0 -123 -57t-68 -138l-21 -140q-3 -23 11 -39.5t37 -16.5h483v26q-29 -6 -51 15zM836 58
q5 0 10.5 2.5t9 6t6 8.5t2.5 11q0 5 -1.5 9t-4 7.5t-6 6t-8 4t-8.5 1.5h-5q-1 2 -1.5 4t-1.5 4l3 4q8 8 8 19.5t-8 19.5t-19.5 8t-20.5 -8l-3 -3q-4 2 -8 3v5q0 8 -4 14t-10.5 10t-13.5 4q-12 0 -20 -8t-8 -20v-5q-2 0 -4 -1l-4 -2l-4 3q-8 8 -19.5 8t-19.5 -8t-8 -19.5
t8 -19.5l3 -4q0 -1 -1 -2.5t-1.5 -2.5t-0.5 -3h-5q-11 0 -19.5 -8t-8.5 -19.5t8 -20t20 -8.5h5q1 -4 3 -8l-3 -3q-8 -8 -8 -20t8 -20t19.5 -8t19.5 8l4 3q2 0 4 -1l4 -2v-5q0 -11 8 -19.5t20 -8.5t20 8.5t8 19.5v5l4 2q2 1 4 1l3 -3q9 -8 20.5 -8t19.5 8t8 19.5t-8 20.5
l-3 3q1 2 1.5 4t1.5 4h5zM752 30q-9 0 -17.5 3t-15.5 8t-12 12t-8 15.5t-3 17.5q0 12 4.5 22t12 17.5t18 12t21.5 4.5q15 0 28 -7.5t20.5 -20.5t7.5 -28q0 -23 -16.5 -39.5t-39.5 -16.5z" />
    <glyph glyph-name="uniE607" unicode="&#xe607;" 
d="M725 626l-197 -197l-40 40q-15 15 -34 5q-14 2 -24 -8l-198 -198q-8 -8 -8 -19.5t8 -19.5q3 -4 7 -6t8.5 -2.5t8.5 0t8 2.5t7 6l189 189l48 -48q8 -8 20 -8q3 0 5.5 0.5t5 1.5t5 2.5t4.5 3.5l217 217l55 -55v140h-140zM382 202h112v-306h-112v306zM550 283h112v-387h-112
v387zM718 345h111v-449h-111v449zM214 141h112v-245h-112v245z" />
    <glyph glyph-name="uniE608" unicode="&#xe608;" 
d="M624 560v-122q51 -30 81.5 -81.5t30.5 -112.5q0 -93 -65.5 -158t-158.5 -65q-61 0 -112.5 29.5t-81.5 81t-30 112.5q0 31 8.5 60t23 53.5t35 45t45.5 35.5v122q-65 -23 -115.5 -69t-79 -110.5t-28.5 -136.5q0 -91 44.5 -168.5t122 -122t168.5 -44.5q34 0 67.5 6.5
t63 19.5t57 31t50 40.5t40.5 50t31 57t19.5 63t6.5 67.5q0 108 -62 194.5t-161 121.5zM512 188q15 0 28 7.5t20.5 20.5t7.5 28v392q0 23 -16.5 39t-39.5 16t-39.5 -16t-16.5 -39v-392q0 -11 4.5 -21.5t12 -18t18 -12t21.5 -4.5z" />
    <glyph glyph-name="uniE609" unicode="&#xe609;" 
d="M512 748q-91 0 -174 -35.5t-143 -95.5t-95.5 -143t-35.5 -174t35.5 -174t95.5 -143t143 -95.5t174 -35.5q73 0 141.5 22.5t123.5 64t96.5 96.5t64 123.5t22.5 141.5t-22.5 141.5t-64 123.5t-96.5 96.5t-123.5 64t-141.5 22.5zM512 -106q-110 0 -203.5 54.5t-148 148
t-54.5 203.5t54.5 203.5t148 148t203.5 54.5q83 0 158 -32t129.5 -86.5t86.5 -129.5t32 -158q0 -110 -54.5 -203.5t-148 -148t-203.5 -54.5zM696 447l-253 -252l-115 114q-6 7 -14.5 7t-14.5 -7q-4 -4 -5.5 -9t0 -10.5t5.5 -9.5l127 -127q4 -4 9.5 -5.5t10.5 0.5q9 -1 16 6
l263 263q6 7 6 15.5t-6 14.5t-14.5 6t-14.5 -6z" />
    <glyph glyph-name="uniE60A" unicode="&#xe60a;" 
d="M512 426q-6 0 -10.5 -2.5t-7.5 -7.5t-3 -11v-321q0 -6 3 -11t7.5 -7.5t10.5 -2.5q3 0 6.5 1t6 3t4.5 4.5t3 5.5t1 7v321q0 9 -6 15t-15 6zM512 537q-9 0 -15 -6t-6 -15v-28q0 -8 6 -14.5t15 -6.5q2 0 4 0.5t4 1.5l4 2q2 1 3 2.5t2.5 3t2.5 3.5v4q1 2 1 4v28q-5 18 -21 21
zM512 748q-91 0 -174 -35.5t-143 -95.5t-95.5 -143t-35.5 -174t35.5 -174t95.5 -143t143 -95.5t174 -35.5t174 35.5t143 95.5t95.5 143t35.5 174q0 46 -9.5 90.5t-26 84t-41 76t-54.5 66.5t-66.5 54.5t-76 41t-84 26t-90.5 9.5zM512 -106q-110 0 -203.5 54.5t-148 148
t-54.5 203.5q0 83 32.5 158t86.5 129t129 86.5t158 32.5q110 0 203.5 -54.5t148 -148t54.5 -203.5q0 -55 -14.5 -107.5t-41 -97t-64 -82t-82 -64t-97 -41t-107.5 -14.5z" />
    <glyph glyph-name="uniE60B" unicode="&#xe60b;" 
d="M542 303l157 158q3 2 4.5 5t2 6.5t0 6.5t-2 6t-4.5 5q-6 7 -14.5 7t-14.5 -7l-158 -157l-158 157q-6 7 -14.5 7t-14.5 -6.5t-6 -15t6 -14.5l157 -158l-164 -164q-6 -6 -6 -14.5t6 -15t15 -6.5t15 7l164 163l164 -163q6 -7 15 -7t15 6.5t6 15t-6 14.5zM512 748
q-73 0 -141.5 -22.5t-123.5 -64t-96.5 -96.5t-64 -123.5t-22.5 -141.5q0 -91 35.5 -174t95.5 -143t143 -95.5t174 -35.5t174 35.5t143 95.5t95.5 143t35.5 174q0 46 -9.5 90.5t-26 84t-41 76t-54.5 66.5t-66.5 54.5t-76 41t-84 26t-90.5 9.5zM512 -106q-83 0 -158 32.5
t-129 86.5t-86.5 129t-32.5 158t32.5 158t86.5 129t129 86.5t158 32.5q110 0 203.5 -54.5t148 -148t54.5 -203.5q0 -55 -14.5 -107.5t-41 -97t-64 -82t-82 -64t-97 -41t-107.5 -14.5z" />
    <glyph glyph-name="uniE60C" unicode="&#xe60c;" 
d="M512 616q-63 0 -120 -24.5t-98 -66t-65.5 -98.5t-24.5 -119q0 -128 90 -218t217.5 -90t218 90t90.5 218q0 28 -5 55t-14.5 52t-23 48t-30.5 43t-37 37t-43 30.5t-48 23t-52 14.5t-55 5zM456 42v224h-112l224 308v-224h112z" />
    <glyph glyph-name="uniE60D" unicode="&#xe60d;" 
d="M773 496l-224 131q-15 9 -37 9t-37 -9l-224 -131q-10 -6 -18.5 -16.5t-13.5 -23.5t-5 -25v-262q0 -12 4.5 -24.5t13.5 -23.5t19 -17l224 -131q15 -9 37 -9t37 9l224 131q10 6 18.5 16.5t13.5 23.5t5 25v262q0 18 -10.5 37t-26.5 28zM667 113h-27v18h-256v-18h-27v335h310
v-335zM640 422h-256v-266h256v266zM615 331h-47v-115q0 -9 -2 -15l-1 -3q-1 -2 -2 -3l-4 -6q-1 0 -2 -1q-5 -4 -12 -6h-6h-4h-43l-6 25l10 -1h11q10 -1 19 -1q5 0 8.5 2t5 6t1.5 9v106q-4 -8 -8.5 -14.5t-8.5 -13.5q-1 -2 -2.5 -3t-2.5 -3l-2 -2l-2 -4l-2 -2q-1 -2 -3 -3
q-8 -11 -17 -20q-6 -6 -12 -11l-4 -4q-6 -5 -12 -11q-1 0 -2 -1l-2 -2q-9 -7 -19 -14t-21 -13l-7 12l-8 12q25 13 46 29q2 1 4 3q9 6 16.5 13t15.5 15q8 9 15 18q9 11 17 22h-107v25h128v47h27v-47h47v-25z" />
    <glyph glyph-name="uniE60E" unicode="&#xe60e;" 
d="M512 -147q91 0 174 35.5t142.5 95t95 142.5t35.5 174q0 37 -6 72.5t-17 68.5t-27 64.5t-36 59t-44.5 52t-52 44.5t-59 36t-64.5 27t-68.5 17t-72.5 6q-170 0 -297 -112q-123 -110 -146 -272q-4 -32 -4 -63q0 -73 22.5 -141t64 -123t96.5 -96.5t123 -64t141 -22.5z
M254.5 345q12.5 12 30 12t29.5 -12l132 -132l252 252q8 8 19 10.5t22 0t19 -10.5q12 -13 12 -30t-12 -30l-275 -274l-4 -4q-1 -2 -3 -3q-12 -13 -29.5 -13t-29.5 13l-162 162q-13 12 -13 29.5t12.5 29.5z" />
    <glyph glyph-name="uniE60F" unicode="&#xe60f;" 
d="M766 48q25 38 25 84q0 64 -45 109t-108.5 45t-108.5 -45t-45 -108.5t45 -108.5t109 -45q25 0 47.5 7.5t42.5 21.5l42 -43q8 -8 19.5 -8t20.5 8q5 5 7 12.5t0 14.5t-7 13zM638 34q-41 0 -69.5 29t-28.5 69q0 27 13 49.5t35.5 35.5t49.5 13q40 0 69 -28.5t29 -69.5
q0 -26 -13.5 -48.5t-36 -36t-48.5 -13.5zM791 614h-97v-41q0 -12 -8.5 -20t-19.5 -8h-308q-11 0 -19.5 8t-8.5 20v41h-97q-24 0 -40 -16t-16 -40v-558q0 -24 16 -40t40 -16h300q-45 26 -73 70t-31 97h-99q-8 0 -16 3.5t-13.5 9t-9 13.5t-3.5 16q0 7 2.5 13.5t6 11.5t9 9
t11.5 6t13 2h110q11 30 30 56h-140q-17 0 -29.5 12.5t-12.5 29.5q0 11 6 21t15.5 15.5t20.5 5.5h364q11 0 21 -6t15 -16q80 -39 107 -123q10 -29 10 -60v428q0 24 -16 40t-40 16zM694 391h-364q-17 0 -29.5 12t-12.5 30q0 8 3.5 16t9 13.5t13.5 9t16 3.5h364
q17 0 29.5 -12.5t12.5 -30t-12.5 -29.5t-29.5 -12zM422 573h196q17 0 29.5 12t12.5 29.5t-12.5 29.5t-29.5 12h-196q-17 0 -29.5 -12t-12.5 -29.5t12.5 -29.5t29.5 -12z" />
    <glyph glyph-name="uniE610" unicode="&#xe610;" 
d="M792 20q23 0 39.5 16.5t16.5 39.5v364q0 15 -7.5 28t-20.5 20.5t-28 7.5h-112q0 15 -7.5 28t-20.5 20.5t-28 7.5h-224q-23 0 -39.5 -16.5t-16.5 -39.5h-112q-11 0 -21.5 -4.5t-18 -12t-12 -18t-4.5 -21.5v-364q0 -23 16.5 -39.5t39.5 -16.5h560zM736 440q11 0 19.5 -8
t8.5 -20t-8.5 -20t-20 -8t-19.5 8t-8 20q0 21 20 27q4 1 8 1zM512 356q30 0 56 -15t41 -41t15 -56t-15 -56t-41 -41t-56 -15q-46 0 -79 33t-33 79q0 23 9 43.5t24 35.5t35.5 24t43.5 9z" />
    <glyph glyph-name="uniE611" unicode="&#xe611;" 
d="M317 -30q12 0 20.5 8.5t8.5 20.5v263q114 22 174 -13q31 -18 78 -19.5t78.5 4.5t31.5 7q15 3 25.5 16.5t10.5 29.5v251q0 15 -10.5 23.5t-25.5 4.5q-5 -2 -13.5 -4t-33.5 -6.5t-47.5 -5t-49.5 5.5t-46 19q-28 20 -75 23h-36q-9 0 -18.5 -1t-17.5 -2.5t-15.5 -3t-13 -3
t-9.5 -2.5t-6 -1l-3 -1q-6 -2 -12.5 -5.5t-10.5 -9.5q-13 -9 -13 -24v-546q0 -8 4 -14.5t10.5 -10.5t14.5 -4z" />
    <glyph glyph-name="uniE612" unicode="&#xe612;" 
d="M647 247q-5 8 -11 15q-1 2 -1 3q-100 145 -100 333q-13 5 -36 -21.5t-51.5 -77t-54 -101t-53.5 -109.5q-15 20 -27 40.5t-21.5 45t-15.5 49.5q-11 -36 -17.5 -73.5t-7.5 -68t1.5 -61t6 -51.5t8 -40t6.5 -25t3 -10h1q5 -26 20.5 -47.5t38 -33.5t48.5 -12q32 0 59 19
q33 -19 70.5 -19t71.5 19q26 -19 59 -19q42 0 72.5 30t35.5 75q6 21 11 47.5t9 69.5t-2 96t-22 104q-21 -96 -101 -177z" />
    <glyph glyph-name="uniE613" unicode="&#xe613;" 
d="M437 636h-224q-15 0 -26 -11t-11 -26v-224q0 -16 11 -27t26 -11h150h74q16 0 27 11t11 27v74v150q0 15 -11 26t-27 11zM400 412h-37h-112v149h149v-112v-37zM325 487zM288 486.5q0 15.5 11 26.5t26.5 11t26.5 -11t11 -26.5t-11 -26.5t-26.5 -11t-26.5 11t-11 26.5z
M811 636h-224q-16 0 -27 -11t-11 -26v-150v-74q0 -16 11 -27t27 -11h224q15 0 26 11t11 27v74v150q0 10 -5 18.5t-13.5 13.5t-18.5 5zM624 449v112h149v-112v-37h-149v37zM699 487zM661 486.5q0 15.5 11 26.5t26.5 11t26.5 -11t11 -26q0 -10 -5 -19t-13.5 -14t-18.5 -5
q-16 0 -27 11t-11 26.5zM325 113zM288 113.5q0 15.5 11 26.5t26.5 11t26.5 -11t11 -26.5t-11 -26.5t-26.5 -11t-26.5 11t-11 26.5zM437 263h-74h-150q-15 0 -26 -11t-11 -27v-224q0 -15 11 -26t26 -11h150h74q16 0 27 11t11 26v224q0 10 -5 19t-13.5 14t-19.5 5zM251 39v149
h112h37v-149h-37h-112zM810.5 76q-15.5 0 -26.5 -11t-11 -26h-74q-16 0 -27 -11t-11 -27q0 -7 3 -14t8 -12t12 -8t15 -3h112q3 0 5.5 0.5t5.5 0.5v1q12 3 19 13t7 22v38q0 15 -11 26t-26.5 11zM842 246v1h-1q-5 7 -13 11.5t-17 4.5h-224q-3 0 -6 -1q-13 -2 -22.5 -12.5
t-9.5 -24.5v-224q0 -15 11 -26t26.5 -11t26.5 11t11 26v187h149q0 -16 11 -26.5t27 -10.5q4 0 8.5 1t8 2.5t6.5 4t6 6t4.5 7t2.5 8t1 8.5v37q0 12 -6 21zM698.5 76q15.5 0 26.5 11t11 26q0 10 -5 19t-13.5 14t-18.5 5q-16 0 -27 -11t-11 -26.5t11 -26.5t26.5 -11z" />
    <glyph glyph-name="uniE614" unicode="&#xe614;" 
d="M512 487zM363 486.5q0 61.5 43.5 105.5t105.5 44t105.5 -44t43.5 -105q0 -41 -20 -75.5t-54 -54.5t-75 -20q-62 0 -105.5 44t-43.5 105.5zM512 300q-91 0 -168.5 -45t-122.5 -122.5t-45 -168.5h672q0 91 -45 168.5t-122.5 122.5t-168.5 45z" />
    <glyph glyph-name="uniE615" unicode="&#xe615;" 
d="M536 616q-7 7 -16 10t-18 0t-15 -10l-212 -242q-10 -12 -6.5 -20t19.5 -8h74v-224h-37q-15 0 -26 -11t-11 -26v-38q0 -15 11 -26t26 -11h373q15 0 26 11t11 26v38q0 10 -5 18.5t-13.5 13.5t-18.5 5h-38v224h75q10 0 15.5 3.5t4.5 10t-7 14.5z" />
    <glyph glyph-name="uniE616" unicode="&#xe616;" 
d="M830 -35h17v16zM550 2q-31 0 -53 21.5t-22 52.5t22 53t53 22h106l-84 84q-12 12 -17.5 29t-3.5 34q-19 2 -39 2q-91 0 -168.5 -45t-122 -122t-44.5 -168h443l37 37h-107zM847 76q0 26 -24 35q0 2 -1 4t-2 3.5t-2 3.5l-3 2l-106 106q-7 7 -16.5 9.5t-19 0t-16.5 -9.5
q-11 -11 -11 -26.5t10 -25.5l64 -64h-171q-15 0 -26 -11t-11 -26.5t11 -26.5t26 -11h171l-64 -64q-10 -10 -10 -25.5t11 -26.5t26 -11t26 11l106 105q1 2 2.5 3.5t2.5 3t2 3.5t1 3q24 9 24 35zM512 486zM363 486.5q0 30.5 12 58t31.5 47.5t47.5 31.5t58 11.5t58 -11.5
t47.5 -31.5t31.5 -47.5t12 -58t-12 -58t-31.5 -47.5t-47.5 -32t-58 -12t-58 12t-47.5 32t-31.5 47.5t-12 58z" />
    <glyph glyph-name="uniE617" unicode="&#xe617;" 
d="M512 494zM363 494q0 41 20 75.5t54 54.5t75 20q62 0 105.5 -44t43.5 -106q0 -30 -12 -57.5t-32 -47.5t-47.5 -32t-57.5 -12q-62 0 -105.5 44t-43.5 105zM764 193l-34 -34h61q-12 18 -27 34zM497 30q-11 11 -17 24.5t-6 29.5q0 35 27 57l141 141q-31 13 -63.5 19.5
t-66.5 6.5q-91 0 -168.5 -45t-122.5 -122.5t-45 -168.5h380l-58 58h-1zM729 9l38 -37h81q0 9 -0.5 18.5t-1.5 18.5h-117zM639 47h171q16 0 27 11t11 26q0 10 -5 18.5t-14 13.5t-19 5h-171l64 64q11 11 11 26.5t-11 26.5t-26.5 11t-26.5 -11l-106 -106q-5 -6 -8 -13
q-11 -4 -17.5 -13.5t-6.5 -21.5q0 -26 24 -35q3 -7 8 -13l106 -106q11 -11 26.5 -11t26.5 11t11 26.5t-11 26.5z" />
    <glyph glyph-name="uniE618" unicode="&#xe618;" 
d="M475 345zM288 344.5q0 77.5 54.5 132t132.5 54.5q30 0 58.5 -9t51.5 -26.5t40.5 -40.5t26.5 -51.5t9 -58.5q0 -51 -25 -94t-68 -68t-93 -25q-78 0 -132.5 54.5t-54.5 132zM801 71l-113 113l-4 4q52 69 52 157q0 108 -76.5 184.5t-185 76.5t-185 -76.5t-76.5 -185
t76.5 -185t185.5 -76.5q87 0 157 53l3 -4l113 -113q11 -11 26.5 -11t26.5 11t11 26.5t-11 25.5zM475 158q-38 0 -73 15t-60 40t-39.5 59.5t-14.5 72.5q0 50 25 93t68 68t93.5 25t93.5 -25t68 -68t25 -93q0 -78 -54.5 -132.5t-131.5 -54.5z" />
    <glyph glyph-name="uniE619" unicode="&#xe619;" 
d="M810 267v153q0 15 -11 26t-26 11h-16l-93 161q-10 18 -27.5 28t-36.5 10t-38 -10l-327 -189h16q-16 0 -27 -11t-11 -26v-411q0 -15 11 -26t27 -11h522q8 0 14.5 3t11.5 8t8 12t3 14v153q-4 -2 -8.5 -2.5t-9.5 -0.5h-112q-24 0 -40 16t-16 39.5t16 40t40 16.5h112
q9 0 18 -4zM364 457l198 114q27 16 57 8t45 -35l50 -87h-350zM680 215zM661 215q0 2 0.5 4.5t2 4.5t3 3.5t3.5 3t4.5 2t5.5 0.5q7 0 12.5 -5.5t5.5 -13t-5.5 -13t-13 -5.5t-13 5.5t-5.5 13.5z" />
    <glyph glyph-name="uniE61A" unicode="&#xe61a;" 
d="M733 76h40q15 0 20.5 8.5t-2.5 19.5l-95 137q-8 12 -20 20t-20 8h-21l58 -110q7 -14 -3 -23q-4 5 -8.5 9t-9 6.5t-9 4t-7.5 1.5h-21l14 -26h-274l14 26h-21q-16 0 -34 -21q-10 9 -3 23l58 110h-21q-8 0 -20 -8t-20 -20l-95 -137q-8 -12 -2.5 -20t20.5 -8h40l-58 -84
q-8 -11 -2.5 -19t20.5 -8h522q15 0 20.5 8t-2.5 19zM674 20h-324q-14 0 -19.5 8t0.5 19l16 29h330l16 -29q6 -11 0.5 -19t-19.5 -8zM296 419h104v-119q0 -10 5 -18.5t13.5 -13.5t18.5 -5h150q15 0 26 11t11 26v119h104q15 0 18.5 7.5t-7.5 18.5l-201 200q-11 11 -26 11
t-26 -11l-201 -200q-10 -11 -7 -18.5t18 -7.5z" />
    <glyph glyph-name="uniE61B" unicode="&#xe61b;" 
d="M512 495zM363 495q0 40 20 74.5t54.5 54.5t74.5 20t74.5 -20t54.5 -54.5t20 -74.5q0 -62 -43.5 -105.5t-105.5 -43.5q-40 0 -74.5 20t-54.5 54.5t-20 74.5zM887 63q0 31 -15 57.5t-41.5 42t-58.5 15.5q-9 0 -18.5 -2t-18.5 -5q-42 47 -100 74t-123 27t-123 -27t-100 -74
q-9 3 -18.5 5t-18.5 2q-48 0 -81.5 -34t-33.5 -81q0 -7 1 -15h86q-5 -18 -7.5 -36.5t-2.5 -37.5q0 -9 0.5 -18.5t2.5 -18.5h590q3 18 3 37q0 38 -10 74h86q1 4 1 8v7zM252 272zM177 272q0 12 4 23.5t10.5 20.5t16 16t20.5 10.5t24 3.5q20 0 37 -10t27 -27t10 -37
q0 -31 -22 -53t-52.5 -22t-52.5 22t-22 53zM772 272zM698 272q0 20 10 37t27 27t37 10q31 0 53 -21.5t22 -52.5t-22 -53t-52.5 -22t-52.5 22t-22 53z" />
    <glyph glyph-name="uniE61C" unicode="&#xe61c;" 
d="M512 -73q101 0 187 50t136 136t50 187t-50 187t-136 136t-187 50t-187 -50t-136 -136t-50 -187q0 -51 13.5 -99t37.5 -89t58.5 -75.5t75.5 -58.5t89 -37.5t99 -13.5zM540 87q-12 -11 -28 -11t-27 11t-11 27q0 17 11 27t27 10q8 0 15 -2.5t13 -7.5q11 -11 11 -27
q0 -8 -3 -15t-8 -12zM431 423q32 33 90 33q25 0 45.5 -6.5t36.5 -20.5q31 -28 31 -75q0 -13 -2.5 -24.5t-6.5 -21t-11 -18.5q-3 -4 -14.5 -14.5t-29.5 -25.5l-6 -6l-4 -4q-3 -3 -5 -6t-3.5 -5.5t-2.5 -5.5q-5 -8 -7 -16.5t-2 -18.5v-9h-56v9q0 15 2.5 27.5t8.5 23.5
q11 21 36 43q4 4 9 8.5t8 7.5l6 6l5 5q2 2 4 3q14 19 14 38q0 27 -15.5 43t-43.5 16q-35 0 -51 -22l-4 -6q-2 -3 -3.5 -6.5t-2.5 -7t-2 -7.5t-1.5 -8.5t-0.5 -9.5v-9h-56q0 28 8.5 50.5t25.5 39.5z" />
    <glyph glyph-name="uniE61D" unicode="&#xe61d;" 
d="M251 76h522q10 0 19 5t13.5 13.5t4.5 18.5v299q0 15 -10.5 26t-26.5 11h-112q0 16 -11 27t-26 11h-224q-15 0 -26 -11t-11 -27h-112q-8 0 -15 -3t-12 -8t-7.5 -11.5t-2.5 -14.5v-299q0 -15 10.5 -26t26.5 -11zM512 375q30 0 56 -15t41 -41t15 -56q0 -19 -5.5 -36
t-16 -30.5t-24.5 -24t-31 -16t-35 -5.5q-46 0 -79 32.5t-33 79t33 79.5t79 33z" />
    <glyph glyph-name="uniE61E" unicode="&#xe61e;" 
d="M512 2q52 0 92 31.5t53 79.5h-290q18 -67 81 -97q31 -14 64 -14zM717 263h-18v149q0 34 -15 64t-40 51t-58 29q1 3 1 5q0 20 -10 37.5t-27.5 27.5t-37.5 10q-31 0 -53 -22t-22 -53q0 -2 1 -5q-24 -6 -45 -19.5t-36 -32.5t-23.5 -42.5t-8.5 -49.5v-149h-18
q-23 0 -39.5 -16.5t-16.5 -39.5q0 -16 7.5 -28.5t20.5 -20t28 -7.5h410q23 0 39.5 16.5t16.5 39.5t-16.5 39.5t-39.5 16.5z" />
    <glyph glyph-name="uniE61F" unicode="&#xe61f;" 
d="M429 -38l132 27l-106 105zM613 -11l18 -18h143q31 0 52.5 22t21.5 53v178l-1 -2zM774 644h-523q-31 0 -53 -22t-22 -53v-523q0 -21 10 -38t27 -27t38 -10h141l26 130l14 69l23 -23l48 48h-178q-15 0 -26 11t-11 26.5t11 26.5t26 11h253l110 110q33 33 79.5 33t79.5 -33
l1 -2v191q0 20 -9.5 37.5t-27 27.5t-37.5 10zM326 121q15 0 26 -11t11 -27q0 -6 -2 -11.5t-5.5 -10t-8 -8t-10 -5.5t-11.5 -2q-16 0 -27 11t-11 26q0 10 5 19t13.5 14t19.5 5zM475 345h-150q-5 0 -9.5 1t-9 3.5t-7.5 6t-5.5 7.5t-4 9t-1.5 10q0 15 11 26t26 11h150
q6 0 12 -1.5t10.5 -5t8 -8t5 -10.5t1.5 -12q0 -15 -11 -26t-26 -11zM699 488h-373q-16 0 -27 11t-11 26q0 8 3 15t8 12t12 8t15 3h373q16 0 26.5 -11t10.5 -27q0 -26 -25 -35q-6 -2 -12 -2zM820 354q-22 22 -52.5 22t-52.5 -22l-238 -238l105 -106l238 238q11 11 16.5 25
t5.5 28t-5.5 28t-16.5 25zM767 195l-105 106l26 26l106 -105z" />
    <glyph glyph-name="uniE620" unicode="&#xe620;" 
d="M661 412h75v-224h-75v224zM288 412h75v-224h-75v224zM475 412h74v-224h-74v224zM661 412h75v-224h-75v224zM774 561h-524q-30 0 -52 -22t-22 -53v-372q0 -13 4 -24.5t10.5 -20.5t16 -16t20.5 -10.5t23 -3.5h524q30 0 52 22t22 53v372q0 31 -22 53t-52 22zM400 412v-224
v-37h-37h-75h-37v37v224v37h37h75h37v-37zM587 412v-224v-37h-38h-74h-38v37v224v37h38h74h38v-37zM773 412v-224v-37h-37h-75h-37v37v224v37h37h75h37v-37zM475 412h74v-224h-74v224zM288 412h75v-224h-75v224z" />
    <glyph glyph-name="uniE621" unicode="&#xe621;" 
d="M521 90l-194 112l224 388l194 -112zM780 652l-96 55q-21 12 -43 6t-34 -26l-28 -48l194 -112l28 48q12 20 5.5 42.5t-26.5 34.5zM284 -97l209 138l-194 112z" />
    <glyph glyph-name="uniE622" unicode="&#xe622;" 
d="M736 692h-448q-34 0 -65.5 -13.5t-54 -36t-35.5 -53.5t-13 -65v-280q0 -45 22.5 -84t61 -61.5t84.5 -22.5h170l222 -168v168h56q70 0 119 49.5t49 118.5v280q0 69 -49 118.5t-119 49.5zM736 244h-336v56h336v-56zM736 356h-392v56h392v-56zM736 468h-448v56h448v-56z" />
    <glyph glyph-name="uniE623" unicode="&#xe623;" 
d="M400 580h224q12 0 22 4.5t17.5 12t12 17.5t4.5 21.5t-4.5 22t-12 18t-17.5 12t-22 4.5h-224q-23 0 -39.5 -16.5t-16.5 -39.5q0 -12 4.5 -22t12 -17.5t17.5 -12t22 -4.5zM735 636h-4q1 -4 2 -7t1.5 -6.5t1 -7.5t0.5 -7q0 -10 -2.5 -19.5t-6.5 -17.5t-9.5 -15.5t-13 -13
t-15.5 -10t-17.5 -6.5t-19.5 -2h-280q-23 0 -42 11t-30.5 30.5t-11.5 42.5q0 3 0.5 6t0.5 5.5t0.5 5.5t1.5 5.5t2 5.5h-4q-47 0 -80 -33t-33 -79v-504q0 -46 33 -79t80 -33h205q-81 66 -92 168h-86q-11 0 -19.5 8.5t-8.5 20t8.5 19.5t19.5 8h86q6 61 40 112h-126
q-11 0 -19.5 8.5t-8.5 19.5q0 8 4 14.5t10.5 10t13.5 3.5h178q69 56 158 56q19 0 38.5 -3t37 -8.5t34.5 -14t32 -18.5t28.5 -22.5t25.5 -27.5v262q0 30 -15 56t-41 41t-57 15zM708 412h-392q-7 0 -13.5 4t-10.5 10.5t-4 13.5q0 11 8.5 19.5t19.5 8.5h392q11 0 19.5 -8.5
t8.5 -19.5q0 -6 -2.5 -11t-6 -9t-9 -6t-10.5 -2zM652 300q-81 0 -138.5 -57.5t-57.5 -138.5t57.5 -138.5t138.5 -57.5t138.5 57.5t57.5 138.5t-57.5 138.5t-138.5 57.5zM652 -36q-58 0 -99 41t-41 99q0 38 18.5 70.5t51 51t70.5 18.5t70 -18.5t51 -51t19 -70.5
q0 -71 -57 -113q-38 -26 -83 -27zM708 132h-28v28q0 12 -8.5 20t-20 8t-19.5 -8t-8 -20v-56q0 -11 8 -19.5t20 -8.5h56q6 0 11 2.5t8.5 6t6 8.5t2.5 11q0 12 -8.5 20t-19.5 8z" />
    <glyph glyph-name="uniE624" unicode="&#xe624;" 
d="M299 427l193 -112q6 -3 12 -3q7 0 13 3l193 112q8 4 10 13t-2.5 17t-13 10.5t-16.5 -2.5l-184 -106l-183 106q-8 5 -16.5 2.5t-13.5 -10.5t-2.5 -17t10.5 -13zM688 298l-184 -106l-183 106q-8 5 -16.5 2.5t-13.5 -10.5q-3 -5 -3 -11t3 -11t8 -8l193 -112q6 -3 12 -3
q4 0 7 0.5t6 2.5l193 112q8 4 10 13t-2 17q-3 5 -8.5 8t-11 3t-10.5 -3z" />
    <glyph glyph-name="uniE625" unicode="&#xe625;" 
d="M689 184q-11 11 -26.5 11t-26.5 -11q-8 -7 -10.5 -16.5t0 -19.5t10.5 -17l113 -113q11 -11 26.5 -11t26 11t10.5 26.5t-10 26.5zM475.5 606q-108.5 0 -185 -76.5t-76.5 -185t76.5 -185t185 -76.5t185 76.5t76.5 185t-76.5 185t-185 76.5zM475 158q-77 0 -132 54.5
t-55 132t55 132t132.5 54.5t132 -54.5t54.5 -132.5q0 -38 -14.5 -72.5t-40 -59.5t-60 -39.5t-72.5 -14.5z" />
    <glyph glyph-name="uniE626" unicode="&#xe626;" 
d="M733 84h40q15 0 20.5 8t-2.5 20l-95 137q-8 12 -20 20t-20 8h-21l58 -110q3 -7 2.5 -13t-5.5 -10q-4 5 -8.5 8.5t-9 6.5t-9 4.5t-7.5 1.5h-21l14 -26h-274l13 26h-20q-7 0 -17 -6t-18 -15q-4 4 -5 10t3 13l57 110h-20q-3 0 -5.5 -1t-5.5 -2t-6 -3t-6.5 -4.5t-6 -5
t-5.5 -6t-5 -6.5l-96 -137q-8 -12 -2.5 -20t21.5 -8h40l-59 -84q-8 -12 -2.5 -20t21.5 -8h522q15 0 20.5 8t-2.5 20zM674 27h-325q-13 0 -18.5 8t0.5 20l15 29h331l16 -29q2 -5 2.5 -9t-1 -7.5t-4 -6t-6.5 -4t-10 -1.5zM486 274q5 -5 12 -8t14 -3t14 3t12 8l201 201
q10 11 7 18.5t-18 7.5h-104v119q0 15 -11 26t-26 11h-150q-16 0 -26.5 -11t-10.5 -26v-119h-104q-16 0 -19 -7.5t8 -18.5z" />
    <glyph glyph-name="uniE627" unicode="&#xe627;" 
d="M837 243h-339q-24 0 -40.5 -16.5t-16.5 -39.5v-226q0 -24 17 -40.5t40 -16.5h339q11 0 21.5 4.5t18 12.5t12 18t4.5 22v226q0 23 -16.5 39.5t-39.5 16.5zM512 201h311q11 0 19.5 -8t8.5 -20v-197l-100 100q-5 5 -12.5 7t-14.5 0t-13 -7l-93 -94l-44 44q-5 5 -12.5 7
t-14.5 0t-13 -7l-50 -51v198q0 6 2 11t6 9t9 6t11 2zM561 123zM512 123.5q0 20.5 14.5 35t35 14.5t35 -14.5t14.5 -35.5q0 -32 -29 -45q-11 -4 -21 -4q-20 0 -34.5 14.5t-14.5 35zM413 583h198q17 0 29.5 12t12.5 29.5t-12.5 30t-29.5 12.5h-198q-17 0 -29.5 -12.5
t-12.5 -30t12.5 -29.5t29.5 -12zM328 201h71v28q0 16 8 29h-79q-17 0 -29.5 12t-12.5 30t12.5 30t29.5 12h368q11 0 21 -5.5t15.5 -15.5t5.5 -21q0 -7 -2 -14h101q7 0 14 -2v284q0 24 -16.5 40.5t-40.5 16.5h-98v-42q0 -12 -8.5 -20.5t-20.5 -8.5h-310q-12 0 -20.5 8.5
t-8.5 20.5v42h-98q-16 0 -29 -7.5t-20.5 -20.5t-7.5 -29v-564q0 -24 16.5 -40.5t40.5 -16.5h171q-2 7 -2 14v155h-71q-17 0 -29.5 12.5t-12.5 30.5q0 29 27 39q8 3 15 3zM328 484h368q8 0 16 -3.5t13.5 -9t9 -13.5t3.5 -17q0 -11 -5.5 -21t-15.5 -15.5t-21 -5.5h-368
q-17 0 -29.5 12.5t-12.5 29.5q0 29 27 40q8 2 15 3z" />
    <glyph glyph-name="uniE628" unicode="&#xe628;" 
d="M530 401q8 -1 17 -3t17.5 -3.5t15.5 -2.5q-14 -54 -49.5 -75t-92.5 -19q52 -24 102 -16q40 6 67 31t48 66q4 -1 9.5 -2t9.5 -2t10 -2t11 -2q-13 21 -34.5 57.5t-29.5 48.5q-92 -69 -101 -76zM446 459q2 22 10.5 38t25.5 27t41.5 18t60.5 11q-46 26 -105 15
q-67 -12 -110 -95q-4 1 -9.5 1.5t-9.5 1t-10 1.5t-11 2q8 -13 16.5 -28t15.5 -26t16 -26.5t15 -25.5q10 8 25 19t25.5 19t24.5 18.5t27 20.5q-38 7 -48 9zM512 748q-91 0 -168.5 -45t-122.5 -122.5t-45 -168.5q0 -52 34.5 -128.5t84 -149t99 -137.5t83.5 -105l35 -40
q14 16 36.5 42t80.5 100.5t102 141.5t80.5 145.5t36.5 130.5q0 91 -45 168.5t-122.5 122.5t-168.5 45zM513.5 190q-92.5 0 -158 65.5t-65.5 158t65.5 158.5t158 66t158.5 -66t66 -158.5t-66 -158t-158.5 -65.5z" />
    <glyph glyph-name="uniE629" unicode="&#xe629;" 
d="M774 637h-75q0 -16 -6 -29.5t-16 -23.5t-24 -16t-29 -6h-225q-31 0 -52.5 21.5t-21.5 53.5h-75q-21 0 -38 -10t-27 -27.5t-10 -37.5v-524q0 -31 22 -53t53 -22h250q-39 26 -64.5 65t-32.5 85h-78q-10 0 -19 5t-14 13.5t-5 19t5 19t14 13.5t19 5h78q2 13 5.5 26t9 25
t11.5 24h-104q-8 0 -15 2.5t-12 7.5t-8 12t-3 15t3 14.5t8 11.5t12 8t15 3h175q27 18 58.5 28t65.5 10q93 0 158.5 -66t65.5 -159v412q0 31 -22 53t-52 22zM698 412h-373q-10 0 -19 5t-14 13.5t-5 19t5 19t14 13.5t19 5h373q16 0 27 -11t11 -26.5t-11 -26.5t-27 -11z
M662 188v112q0 16 -11 26.5t-26.5 10.5t-26.5 -10.5t-11 -26.5v-112q0 -16 11 -27t27 -11q4 0 8 1t8 3t7 4.5t5.5 6t4.5 7t3 7.5t1 9zM400 599h224q10 0 18.5 5t14 13.5t5.5 19t-5 19t-14 13.5t-19 5h-224q-16 0 -27 -11t-11 -26.5t11 -26.5t27 -11zM697 282q2 -10 2 -19
v-112q0 -15 -6 -29t-16 -24t-24 -16t-29 -6q-9 0 -17 2t-15.5 5.5t-14 8.5t-11.5 11.5t-9 14t-6 16t-2 17.5v112q0 5 1 9.5t2 9.5q-23 -13 -40.5 -33t-27 -45.5t-9.5 -52.5q0 -62 43.5 -106t105.5 -44t106 44t44 106q0 41 -21 76t-56 55z" />
    <glyph glyph-name="uniE62A" unicode="&#xe62a;" 
d="M177 -35h392q-57 63 -57 149q0 52 22.5 98t62.5 77q-42 11 -85 11q-137 0 -235 -96q-97 -95 -100 -231v-8zM512 486zM363 486.5q0 30.5 12 58t31.5 47.5t47.5 31.5t58 11.5t58 -11.5t47.5 -31.5t31.5 -47.5t12 -58t-12 -58t-31.5 -47.5t-47.5 -32t-58 -12t-58 12
t-47.5 32t-31.5 47.5t-12 58zM590 154q-17 0 -29 -12t-12 -28q0 -11 5.5 -20.5t15 -15t20.5 -5.5h3q2 -6 3.5 -11.5t4 -10.5t4.5 -11l-1 -1q-8 -8 -10.5 -18t0 -20.5t10.5 -18.5q11 -12 27.5 -12t28.5 11q17 -10 35 -16q1 -7 4 -14.5t8.5 -12.5t13 -8t15.5 -3q16 0 27.5 11
t12.5 27q19 6 35 16q12 -11 28.5 -11t27.5 12q12 12 12 28.5t-12 28.5l-1 1q8 16 12 33h3q17 0 29 12t12 29q0 8 -3 15.5t-8.5 13t-13 8.5t-16.5 3h-8q-2 7 -5.5 14t-7.5 13l7 7q8 8 11 18.5t0 21t-11 17.5q-11 12 -28 12t-29 -12l-9 -9q-12 6 -25 10v14q0 11 -5.5 20
t-14.5 14.5t-20 5.5t-20.5 -5.5t-15 -14.5t-5.5 -20v-14q-13 -4 -25 -10l-9 9q-6 6 -13.5 9t-15 3t-15 -3t-13.5 -9q-12 -11 -12 -28t12 -29l7 -7q-4 -6 -7 -13l-6 -14h-8zM736 177q14 0 27.5 -5.5t23 -15.5t15 -23t5.5 -27q0 -20 -9.5 -36.5t-26 -26t-35.5 -9.5
q-30 0 -51 21t-21 50.5t21 50.5t51 21z" />
    <glyph glyph-name="uniE62B" unicode="&#xe62b;" 
d="M512 -66q152 73 244 213.5t92 309.5v21v16q0 10 -0.5 19.5t-1.5 19t-2.5 19t-3.5 18.5q-177 12 -328 105q-73 -45 -156 -72t-171 -33q-9 -37 -9 -76q0 -8 1 -16q-1 -5 -1 -10v-11q0 -169 92 -309.5t244 -213.5zM438 457q0 31 21.5 52.5t52.5 21.5t53 -21.5t22 -52.5v-150
q0 -8 -2 -16.5t-5.5 -16t-8.5 -14t-11.5 -11.5t-14 -8.5t-16 -5.5t-17.5 -2q-31 0 -52.5 21.5t-21.5 52.5v150zM512 195q31 0 53 -21.5t22 -52.5t-22 -53t-53 -22t-52.5 22t-21.5 53t21.5 52.5t52.5 21.5z" />
  </font>
</defs>
</svg>
